<svg width="28" height="28" viewBox="0 0 28 28" fill="none" xmlns="http://www.w3.org/2000/svg">
<path d="M14 28C6.3 28 0 21.7 0 14C0 6.3 6.3 0 14 0C21.7 0 28 6.3 28 14C28 21.7 21.7 28 14 28ZM14 2.33333C7.58333 2.33333 2.33333 7.58333 2.33333 14C2.33333 20.4167 7.58333 25.6667 14 25.6667C20.4167 25.6667 25.6667 20.4167 25.6667 14C25.6667 7.58333 20.4167 2.33333 14 2.33333Z" fill="#F5D365"/>
<path d="M12.8334 18.6667C12.4834 18.6667 12.25 18.55 12.0167 18.3167L8.51669 14.8167C8.05002 14.35 8.05002 13.65 8.51669 13.1834C8.98335 12.7167 9.68335 12.7167 10.15 13.1834L13.65 16.6834C14.1167 17.15 14.1167 17.85 13.65 18.3167C13.4167 18.55 13.1834 18.6667 12.8334 18.6667V18.6667Z" fill="#4F1713"/>
<path d="M12.8334 18.6667C12.4834 18.6667 12.25 18.55 12.0167 18.3167C11.55 17.85 11.55 17.15 12.0167 16.6834L19.0167 9.68337C19.4834 9.21671 20.1834 9.21671 20.65 9.68337C21.1167 10.15 21.1167 10.85 20.65 11.3167L13.65 18.3167C13.4167 18.55 13.1834 18.6667 12.8334 18.6667Z" fill="#4F1713"/>
</svg>
