<svg width="253" height="113" viewBox="0 0 253 113" fill="none" xmlns="http://www.w3.org/2000/svg">
<path d="M88.4751 1.06156C92.1497 0.97511 95.8557 0.829724 99.5304 0.865089C99.5304 1.29929 99.5303 1.73349 99.5598 2.13823C97.476 2.37006 95.1604 1.761 93.2514 2.86124C91.6312 3.87504 91.7746 6.01658 91.6312 7.66695C91.6017 18.4945 91.6312 29.3221 91.6017 40.1202C91.7453 43.038 91.0647 45.9372 89.6377 48.486C88.3241 50.4434 86.3176 51.83 84.0227 52.3663C81.3121 52.9736 78.5076 53.0324 75.774 52.5392C74.2115 52.3704 72.7425 51.7116 71.5769 50.657C71.161 50.2146 70.9084 49.6434 70.8609 49.0379C70.8134 48.4323 70.9739 47.8287 71.3157 47.3268C71.7032 46.891 72.2317 46.6057 72.8085 46.5209C73.3852 46.4361 73.9735 46.5573 74.4699 46.8631C76.2061 47.9339 76.0411 50.655 78.117 51.3211C79.1159 51.6313 80.1786 51.6742 81.1993 51.4457C82.2199 51.2171 83.1629 50.7251 83.9343 50.0185C85.2596 48.1382 85.8938 45.8572 85.7294 43.5624V6.82015C85.6135 5.24838 85.3818 3.23061 83.7045 2.59404C81.6205 2.16868 79.4879 2.03249 77.3668 2.18931C77.3373 1.75511 77.3373 1.3209 77.3098 0.857227C81.008 0.80025 84.7416 0.97511 88.4751 1.06156Z" fill="white"/>
<path d="M49.6942 5.46057H60.1034C60.4345 5.47863 60.7632 5.5273 61.0854 5.60596C60.6808 5.89478 59.8127 5.77885 59.8127 6.44489C59.7359 7.34981 59.7169 8.2587 59.7557 9.16604H64.0392C64.0097 8.26816 64.0961 7.37028 63.9822 6.50188C63.9822 5.80637 63.0847 5.86531 62.6506 5.604C63.4419 5.4539 64.249 5.40504 65.0526 5.45861H72.6925C72.7124 6.16528 72.6737 6.87239 72.5766 7.57265C72.229 7.0795 72.1426 6.35649 71.5632 6.0382C70.7457 5.86575 69.9083 5.80756 69.0748 5.86531V9.25248C69.5917 9.21049 70.0944 9.0627 70.5517 8.81828C70.7835 8.38407 70.9563 7.9204 71.1586 7.4862C71.3277 8.71495 71.3376 9.96038 71.1881 11.1917C70.9721 10.7289 70.7206 10.2835 70.4359 9.85958C69.9917 9.68886 69.5228 9.59132 69.0473 9.57077C68.9587 10.6451 69.0169 11.7265 69.2202 12.7851C69.5878 13.0133 69.9991 13.1621 70.4276 13.222C70.8561 13.2818 71.2924 13.2515 71.7085 13.1328C72.663 13.0464 72.8378 12.0031 73.2994 11.3371C73.3382 12.0997 73.3192 12.8642 73.2424 13.624C69.7072 13.567 66.1721 13.7969 62.6801 13.5081C63.0847 13.2193 63.8369 13.2762 63.9528 12.7222C64.0538 11.7222 64.0827 10.7163 64.0392 9.71223H59.7557C59.7174 10.8146 59.766 11.9182 59.9011 13.013C60.3172 13.1824 60.7231 13.3759 61.1168 13.5925C59.7564 13.6502 58.396 13.6502 57.0356 13.5925C57.4402 13.3607 57.8742 13.1878 58.2808 12.9855C58.537 10.6848 58.5179 8.36182 58.2238 6.06571C57.9921 5.97926 57.558 5.83387 57.3557 5.74742C57.4048 6.38695 57.3658 7.03018 57.2399 7.65909C56.9511 7.13844 56.9217 6.41346 56.3423 6.08732C55.6885 5.9287 55.01 5.89934 54.3449 6.00087C54.1856 8.09274 54.1568 10.1925 54.2585 12.288C54.1721 13.1859 55.2719 13.1859 55.8297 13.5336C54.3375 13.6541 52.8388 13.6731 51.344 13.5906C51.8644 13.2134 52.9152 13.1859 52.8779 12.345C52.9348 10.2309 52.9073 8.11884 52.8779 6.0048C52.1738 5.93688 51.464 5.95602 50.7646 6.06177C50.2736 6.25825 50.2441 6.87321 50.0693 7.30741C49.9593 7.38877 49.862 7.48612 49.7807 7.59623C49.7092 6.88474 49.6803 6.16961 49.6942 5.45468M65.6987 6.0048L65.5259 6.12072C65.3474 7.97761 65.2988 9.84472 65.3806 11.7084C65.4375 12.1996 65.2647 13.0405 65.9305 13.1839C66.4804 13.2998 67.5802 13.3568 67.6097 12.5768C67.755 10.84 67.6392 9.10317 67.6667 7.36635C67.6097 6.8457 67.7531 6.0048 67.0598 5.91835C66.5943 5.86727 66.0739 5.72188 65.6987 6.0107V6.0048Z" fill="white"/>
<path d="M112.265 11.1956C116.785 10.5753 121.386 11.4064 125.404 13.569C129.102 15.5414 132.05 18.6738 133.796 22.4849C135.627 26.7112 135.905 31.4489 134.582 35.8607C133.44 39.7374 131.062 43.1337 127.81 45.531C123.832 48.3501 119.037 49.7786 114.166 49.5953C109.295 49.4121 104.62 47.6272 100.866 44.5172C97.3399 41.4826 95.1041 37.2166 94.6145 32.5894C94.1283 28.3234 95.1302 24.0203 97.4505 20.4081C99.1136 17.8985 101.298 15.7769 103.855 14.1881C106.412 12.5994 109.281 11.5807 112.267 11.2015M112.353 12.8224C110.349 13.2003 108.487 14.1219 106.97 15.4865C103.985 18.5223 102.152 22.5053 101.789 26.7483C101.126 31.3884 101.695 36.1213 103.439 40.4719C104.096 42.0999 105.103 43.5635 106.388 44.7593C107.673 45.955 109.206 46.8536 110.876 47.3916C112.711 47.994 114.654 48.192 116.572 47.9723C118.49 47.7525 120.338 47.1201 121.989 46.1185C124.684 44.1058 126.581 41.2034 127.342 37.9256C128.493 33.5158 128.622 28.9011 127.719 24.4339C127.104 20.7314 125.197 17.3671 122.336 14.9384C120.916 13.8998 119.292 13.1738 117.571 12.8081C115.85 12.4424 114.071 12.4452 112.351 12.8165L112.353 12.8224Z" fill="white"/>
<path d="M131.797 11.6573C135.072 11.9034 138.361 11.9034 141.636 11.6573C149.565 21.3499 157.495 31.0295 165.424 40.6959V25.2925C165.511 22.4 165.366 19.5051 164.99 16.6359C164.955 16.0657 164.794 15.5103 164.519 15.0096C164.244 14.5089 163.861 14.0753 163.399 13.7399C162.274 13.3152 161.096 13.0506 159.897 12.954V11.6278C161.952 11.6573 163.978 11.8007 166.033 11.8243C168.087 11.8479 170.141 11.6514 172.168 11.6278C172.139 12.062 172.111 12.4962 172.052 12.9304C170.896 13.1623 169.478 12.9874 168.608 13.9442C167.892 14.9627 167.498 16.1729 167.478 17.4179C167.074 21.4711 167.217 25.5243 167.19 29.5775V49.4959H165.422C158.823 41.1871 151.965 33.0806 145.25 24.8877C143.368 22.6303 141.518 20.3433 139.635 18.0839C139.605 23.2668 139.635 28.4478 139.635 33.6307C139.562 36.6733 139.65 39.7176 139.896 42.751C139.917 44.1903 140.486 45.5674 141.487 46.6018C142.672 47.2572 144.013 47.5778 145.366 47.5292V48.8613C141.113 48.644 136.852 48.644 132.6 48.8613C132.6 48.3976 132.6 47.9634 132.629 47.4997C133.804 47.4805 134.963 47.235 136.045 46.7767C136.425 46.5437 136.751 46.2321 137 45.8627C137.25 45.4933 137.418 45.0748 137.492 44.6351C137.854 42.0267 137.999 39.3929 137.926 36.7605C137.897 29.9272 137.983 23.0959 137.897 16.2626C137.49 15.4979 136.932 14.8238 136.257 14.2814C135.581 13.739 134.803 13.3395 133.969 13.1073C133.264 12.9615 132.548 12.8741 131.828 12.846C131.797 12.5552 131.797 12.121 131.797 11.6573Z" fill="white"/>
<path d="M6.45905 59.6594C10.3283 56.0298 15.451 54.0381 20.7549 54.1012C25.2614 53.9237 29.7023 55.225 33.401 57.8066C33.7571 56.9278 34.1732 56.0744 34.6462 55.2525C34.819 55.1955 35.1372 55.1071 35.312 55.056C35.1666 59.0503 34.8484 63.0171 34.6756 67.0133C34.2416 67.0133 33.8075 67.0133 33.3735 66.9838C33.2534 63.9649 32.0749 61.0846 30.0445 58.8479C28.9847 57.7635 27.7136 56.9084 26.3099 56.3355C24.9062 55.7627 23.3998 55.4843 21.8842 55.5177C18.8584 55.3711 15.8774 56.2933 13.4626 58.123C11.2126 60.0811 9.60834 62.6751 8.86101 65.5633C7.82096 69.4192 7.41043 73.4179 7.6453 77.4047C7.68116 81.6306 9.05647 85.7361 11.5733 89.1302C12.6321 90.3719 13.9383 91.3788 15.4084 92.0865C16.8785 92.7943 18.4801 93.1873 20.1107 93.2404C23.0764 93.5947 26.0639 92.7855 28.4459 90.9829C29.3312 90.1305 30.0223 89.097 30.4717 87.953C30.9212 86.8089 31.1185 85.5813 31.0501 84.3539C31.1905 83.0081 30.8071 81.66 29.9797 80.5895C28.8036 79.7354 27.3811 79.2884 25.928 79.3164V77.8998H41.5555V79.2889C40.5456 79.2282 39.5481 79.5368 38.7489 80.1573C38.1167 81.0394 37.8099 82.1136 37.8808 83.1967C37.8514 85.5131 37.8808 87.8295 37.8514 90.144C36.2458 90.0686 34.6394 90.2741 33.1044 90.7511C31.3683 91.4466 29.8344 92.5743 28.0982 93.3052C23.3938 95.225 18.1731 95.4706 13.3094 94.0007C10.8587 93.3114 8.58119 92.1117 6.62624 90.4804C4.67129 88.8491 3.083 86.8229 1.96546 84.5347C0.225129 80.6625 -0.37707 76.3747 0.229295 72.1727C0.89354 67.4358 3.08016 63.0437 6.45905 59.6594Z" fill="white"/>
<path d="M60.1426 54.3015C65.0169 53.5994 69.9878 54.4824 74.3226 56.8203C78.0204 58.8089 81.0128 61.893 82.8895 65.6498C84.0574 68.1189 84.7228 70.7957 84.8469 73.5245C84.971 76.2532 84.5513 78.9794 83.6122 81.5444C82.009 85.9113 78.9271 89.5783 74.902 91.9083C70.9003 94.1694 66.3258 95.2124 61.7399 94.909C57.1541 94.6058 52.7566 92.9694 49.0873 90.2009C45.2144 87.2041 42.6184 82.8523 41.8206 78.0197C41 73.2346 41.9795 68.315 44.5702 64.2096C46.3054 61.5402 48.5935 59.2748 51.2798 57.5667C53.9662 55.8587 56.9879 54.7478 60.1406 54.3094M60.8359 55.9303C59.069 56.2156 57.3901 56.8988 55.9259 57.9284C52.871 60.3238 50.7515 63.7141 49.9358 67.5104C48.7541 72.2422 48.744 77.1909 49.9063 81.9275C50.3085 83.9154 51.1113 85.8006 52.2658 87.4679C53.4203 89.1353 54.9022 90.5499 56.6212 91.6254C58.468 92.5908 60.4981 93.1543 62.5782 93.2789C64.6582 93.4035 66.7411 93.0864 68.6899 92.3484C70.4305 91.5549 71.9785 90.3935 73.2276 88.9443C74.4766 87.495 75.3969 85.7922 75.9252 83.9531C77.3762 79.3513 77.7426 74.476 76.9956 69.7089C76.5345 65.3854 74.5087 61.3799 71.3 58.4471C69.8309 57.3153 68.1401 56.5056 66.3376 56.0706C64.535 55.6356 62.6612 55.5852 60.8379 55.9225L60.8359 55.9303Z" fill="white"/>
<path d="M184.323 54.331C188.897 53.6484 193.571 54.3755 197.722 56.4156C201.98 58.4492 205.39 61.9123 207.359 66.2019C209.303 70.6315 209.611 75.6082 208.227 80.2437C206.963 84.6399 204.211 88.4599 200.442 91.0497C196.428 93.7037 191.699 95.0653 186.889 94.9515C182.079 94.8377 177.419 93.254 173.535 90.4131C169.981 87.7505 167.448 83.9486 166.359 79.6425C165.152 74.9002 165.74 69.879 168.008 65.5437C169.669 62.5341 172.01 59.9542 174.844 58.0099C177.678 56.0656 180.926 54.8105 184.331 54.3448M184.997 55.9657C183.165 56.2758 181.431 57.0091 179.932 58.1072C177.281 60.2454 175.368 63.1618 174.462 66.4455C173.003 71.3886 172.854 76.6262 174.028 81.6446C174.404 83.6473 175.179 85.5537 176.308 87.25C177.437 88.9463 178.896 90.3976 180.598 91.5173C182.363 92.475 184.305 93.0638 186.305 93.2479C188.305 93.4319 190.322 93.2075 192.232 92.5881C193.971 91.9408 195.547 90.9189 196.847 89.5947C198.147 88.2706 199.14 86.6766 199.756 84.9257C201.482 80.2068 201.999 75.1309 201.261 70.1608C200.852 65.6451 198.778 61.443 195.443 58.3725C193.969 57.2569 192.275 56.4648 190.474 56.0477C188.673 55.6307 186.804 55.598 184.989 55.9519L184.997 55.9657Z" fill="white"/>
<path d="M86.5916 54.7947C89.8322 54.8517 93.0727 54.9911 96.3153 55.0265C100.858 55.0854 105.432 54.3605 109.918 55.2584C112.359 55.5988 114.602 56.7874 116.256 58.6161C117.761 60.6972 118.404 63.2801 118.051 65.8246C117.959 67.0142 117.633 68.1739 117.092 69.237C116.551 70.3001 115.804 71.2457 114.897 72.0194C112.728 73.7288 110.097 74.7473 107.343 74.9429C111.511 79.691 115.659 84.4482 119.787 89.2146C120.84 90.7061 122.31 91.8542 124.011 92.5154C124.665 92.7775 125.384 92.8347 126.071 92.6797C126.758 92.5246 127.382 92.1645 127.861 91.6469C128.393 90.6591 128.671 89.5547 128.672 88.4327C128.933 84.293 128.788 80.1239 128.817 75.9842C128.758 71.0626 128.933 66.1409 128.701 61.2193C128.792 59.8378 128.426 58.4649 127.66 57.3115C126.337 56.4677 124.762 56.1093 123.204 56.2977V54.7731C126.851 54.889 130.496 55.1208 134.144 54.946C138.195 54.5978 142.274 54.7145 146.299 55.2937C150.986 56.0924 155.22 58.5773 158.204 62.2807C161.188 65.9841 162.717 70.6508 162.502 75.4026C162.669 79.8287 161.321 84.1793 158.682 87.7352C156.035 90.913 152.346 93.0472 148.272 93.7571C144.945 94.3025 141.565 94.4581 138.201 94.2207C134.931 94.1343 131.661 94.0242 128.362 94.1343C126.541 94.269 124.715 94.2881 122.892 94.1913C120.558 94.027 118.215 94.0658 115.888 94.3072C111.23 88.6095 106.685 82.843 102.027 77.1689C101.56 76.6799 100.982 76.3111 100.342 76.0942C99.7024 75.8772 99.0194 75.8186 98.3519 75.9233C98.3814 79.5993 98.295 83.3047 98.4089 86.9827C98.3384 88.539 98.6155 90.0914 99.22 91.5271C100.32 92.9751 102.345 92.8592 103.967 92.8887C103.967 93.3523 103.967 93.8435 103.938 94.3367C100.402 94.2502 96.9044 94.0184 93.3752 94.1402C91.0891 94.1696 88.8325 94.2856 86.5444 94.3367V92.9181C88.1942 92.8887 90.3075 93.0046 91.3484 91.4701C91.9171 89.7841 92.172 88.0082 92.1006 86.2302C92.13 79.1572 92.1005 72.1019 92.13 65.0387C92.1882 62.9964 92.0719 60.9529 91.7824 58.9304C91.7478 58.5188 91.6171 58.1212 91.4009 57.7693C91.1846 57.4175 90.8888 57.1214 90.5373 56.9048C89.282 56.3578 87.9055 56.1485 86.5444 56.2977C86.5739 55.7476 86.6014 55.2544 86.6014 54.7927M98.3853 58.2958V74.2768C100.768 74.3543 103.152 74.199 105.505 73.8132C106.385 73.6731 107.228 73.3574 107.984 72.8849C108.739 72.4124 109.393 71.7926 109.904 71.0626C110.959 69.1156 111.402 66.8958 111.177 64.6929C111.163 63.3365 110.825 62.0031 110.19 60.8043C109.556 59.6055 108.643 58.5763 107.53 57.8027C105.157 56.2977 102.176 56.5295 99.4773 56.557C98.5503 56.5001 98.3205 57.5708 98.3774 58.2939M135.479 56.7889C135.016 57.1366 135.074 57.8321 135.016 58.3233V84.3814C134.811 86.3057 135.069 88.2512 135.768 90.0555C136.195 90.7166 136.766 91.2731 137.437 91.6839C138.109 92.0947 138.864 92.3493 139.647 92.4289C141.864 92.7903 144.129 92.7317 146.324 92.256C147.662 91.9922 148.928 91.4483 150.04 90.66C151.153 89.8717 152.086 88.8568 152.778 87.6821C154.507 84.0372 155.283 80.013 155.035 75.9861C154.919 71.035 154.485 65.7087 151.446 61.5985C150.082 59.9639 148.367 58.6574 146.429 57.7755C144.491 56.8937 142.38 56.4591 140.252 56.504C138.654 56.3095 137.034 56.4074 135.471 56.7928L135.479 56.7889Z" fill="white"/>
<path d="M210.456 54.7947C213.903 55.0841 217.369 55.0841 220.816 54.7947C229.261 65.0112 237.659 75.3201 246.081 85.5976V71.0586C246.197 67.4725 246.052 63.8826 245.647 60.3175C245.606 59.6935 245.439 59.0842 245.155 58.5269C244.872 57.9696 244.478 57.4759 243.997 57.0757C242.812 56.5794 241.549 56.2954 240.265 56.2368V54.7947C241.856 54.8517 243.449 54.9106 245.069 54.9911C247.703 55.1071 250.372 54.8752 253 54.7947V56.2427C251.698 56.3881 250.019 56.3291 249.21 57.6042C248.439 59.2821 248.063 61.1142 248.11 62.9601C247.762 69.8209 247.994 76.6542 247.935 83.515V94.9791H246.112C237.141 83.7802 227.91 72.8033 218.793 61.685V77.4342C218.682 81.0079 218.788 84.585 219.111 88.1458C219.175 89.5529 219.764 90.885 220.761 91.8788C222.017 92.5753 223.435 92.9251 224.87 92.8926V94.3111C222.613 94.2541 220.384 94.1146 218.128 94.0793C215.871 94.0439 213.61 94.2522 211.356 94.3111V92.8926C212.86 92.9303 214.337 92.4946 215.58 91.647C216.352 90.6893 216.762 89.4898 216.737 88.2598C217.026 85.1339 216.882 82.0061 216.933 78.8802C216.904 72.5106 216.992 66.1409 216.904 59.7733C216.48 58.9772 215.9 58.2746 215.199 57.7075C214.498 57.1404 213.69 56.7205 212.823 56.4726C212.049 56.3194 211.265 56.2228 210.478 56.1838C210.456 55.722 210.456 55.2584 210.456 54.7947Z" fill="white"/>
<path d="M166.612 102.331C167.588 101.618 168.755 101.214 169.962 101.173C171.17 101.131 172.362 101.454 173.384 102.099C173.557 101.838 173.761 101.579 173.934 101.288C174.06 102.48 174.098 103.68 174.05 104.877C173.443 104.125 173.327 103.054 172.545 102.416C172.172 102.098 171.736 101.863 171.264 101.727C170.793 101.592 170.299 101.559 169.814 101.63C169.329 101.701 168.865 101.875 168.452 102.141C168.04 102.406 167.689 102.756 167.423 103.168C166.858 104.222 166.545 105.394 166.511 106.59C166.477 107.786 166.722 108.974 167.227 110.058C167.47 110.515 167.811 110.912 168.226 111.221C168.641 111.53 169.119 111.743 169.626 111.846C170.133 111.948 170.656 111.937 171.158 111.813C171.66 111.689 172.129 111.456 172.53 111.129C173.398 110.343 173.512 109.103 174.179 108.147C174.276 109.454 174.286 110.767 174.209 112.076C174.012 111.787 173.804 111.469 173.602 111.178C172.911 111.67 172.12 112.005 171.287 112.161C169.809 112.408 168.291 112.185 166.946 111.524C166.217 111.012 165.617 110.338 165.192 109.555C164.767 108.772 164.529 107.901 164.497 107.01C164.465 106.12 164.639 105.234 165.006 104.422C165.373 103.611 165.923 102.895 166.612 102.331Z" fill="white"/>
<path d="M179.172 101.347C180.376 101.055 181.64 101.14 182.794 101.591C183.948 102.041 184.936 102.835 185.624 103.866C186.368 105.118 186.594 106.612 186.253 108.029C185.913 109.446 185.033 110.674 183.801 111.451C182.423 112.205 180.831 112.47 179.284 112.204C178.01 112.024 176.841 111.399 175.983 110.44C175.126 109.481 174.634 108.25 174.596 106.964C174.589 105.642 175.041 104.36 175.875 103.335C176.709 102.31 177.873 101.607 179.168 101.347M179.197 101.926C178.597 102.215 178.075 102.645 177.677 103.18C177.279 103.714 177.016 104.337 176.911 104.995C176.449 106.759 176.677 108.633 177.548 110.235C177.847 110.69 178.245 111.071 178.712 111.351C179.178 111.631 179.702 111.802 180.244 111.852C180.786 111.902 181.332 111.83 181.842 111.64C182.352 111.45 182.813 111.148 183.19 110.756C184.05 109.576 184.467 108.13 184.369 106.673C184.416 105.234 183.944 103.825 183.037 102.706C182.543 102.218 181.917 101.883 181.235 101.745C180.554 101.606 179.847 101.669 179.201 101.926H179.197Z" fill="white"/>
<path d="M212.192 101.231C212.36 101.156 212.534 101.098 212.713 101.058C214.19 104.213 215.266 107.542 216.706 110.728C216.773 110.938 216.891 111.127 217.048 111.281C217.206 111.434 217.398 111.547 217.609 111.61C217.819 111.672 218.042 111.683 218.258 111.64C218.473 111.598 218.675 111.503 218.846 111.365C219.111 110.603 219.22 109.796 219.165 108.992C219.135 106.936 219.222 104.909 219.135 102.854C218.874 102.015 217.833 101.871 217.171 101.435C218.185 101.378 219.225 101.435 220.239 101.378C222.525 104.158 224.782 106.936 227.068 109.716C227.038 107.834 227.068 105.925 227.068 104.042C227.089 103.404 226.96 102.769 226.692 102.19C226.229 101.928 225.738 101.698 225.275 101.437C230.831 101.408 236.387 101.351 241.945 101.351C241.945 102.249 241.945 103.146 241.888 104.042C241.279 103.463 241.279 102.306 240.383 102.017C239.304 101.815 238.202 101.756 237.108 101.844V106.363C237.83 106.247 238.698 106.304 239.221 105.726C239.509 105.206 239.684 104.596 240.006 104.076C240.103 105.637 240.113 107.203 240.036 108.766C239.659 108.245 239.486 107.608 239.081 107.145C238.473 106.867 237.811 106.729 237.143 106.74C237.065 108.063 237.104 109.39 237.259 110.707C237.455 111.459 238.359 111.575 239.026 111.605C240.022 111.76 241.039 111.521 241.862 110.939C242.21 110.388 242.412 109.781 242.787 109.259C242.816 110.215 242.788 111.172 242.701 112.125C238.969 112.096 235.238 112.155 231.506 112.096C230.607 112.178 229.701 112.129 228.816 111.95C229.336 111.662 230.387 111.778 230.465 110.968C230.605 109.158 230.644 107.341 230.581 105.526C230.647 104.441 230.581 103.353 230.385 102.284C229.98 101.647 229.053 101.82 228.421 101.879C227.726 102.052 227.784 102.922 227.698 103.471C227.582 106.418 227.698 109.347 227.641 112.3C226.803 112.184 226.425 111.402 225.905 110.825C223.851 108.306 221.767 105.817 219.713 103.298V108.995C219.659 109.743 219.768 110.494 220.031 111.196C220.292 111.687 220.958 111.63 221.419 111.803C221.386 111.906 221.367 112.013 221.362 112.121C218.729 112.064 216.06 112.208 213.434 112.035C213.984 111.687 215.227 111.687 214.881 110.762C214.649 109.893 214.274 109.054 213.984 108.208H210.018C209.562 109.182 209.24 110.215 209.064 111.276C209.557 111.565 210.107 111.77 210.635 112.029C209.333 112.115 208.001 112.086 206.707 112.058C207.257 111.624 208.096 111.451 208.357 110.756C209.775 107.687 210.91 104.416 212.234 101.231M232.781 101.954C232.231 102.243 232.347 102.995 232.26 103.526C232.26 105.928 232.174 108.361 232.317 110.764C232.26 111.575 233.103 111.864 233.765 111.777C234.285 111.748 235.153 111.721 235.242 111.025C235.391 109.109 235.44 107.186 235.387 105.264C235.471 104.231 235.363 103.19 235.069 102.196C234.725 102 234.344 101.879 233.95 101.839C233.557 101.799 233.159 101.841 232.783 101.964M211.974 103.209C211.395 104.714 210.818 106.192 210.207 107.697H213.742C213.09 106.211 212.511 104.706 211.933 103.2L211.974 103.209Z" fill="white"/>
<path d="M244.751 101.724C245.438 101.348 246.216 101.171 246.999 101.211C247.781 101.252 248.536 101.51 249.18 101.956C249.325 101.783 249.585 101.406 249.73 101.203C249.807 102.282 249.826 103.364 249.787 104.445C249.001 103.431 248.63 101.81 247.096 101.695C246.745 101.607 246.376 101.63 246.039 101.761C245.702 101.892 245.413 102.124 245.214 102.426C245.014 102.727 244.912 103.083 244.923 103.445C244.934 103.807 245.056 104.156 245.274 104.445C246.721 105.777 249.094 105.834 250.194 107.63C250.427 108.029 250.565 108.476 250.598 108.936C250.631 109.397 250.558 109.859 250.385 110.287C250.212 110.715 249.942 111.097 249.598 111.405C249.253 111.712 248.843 111.937 248.398 112.06C247.644 112.274 246.854 112.33 246.077 112.226C245.3 112.122 244.553 111.859 243.881 111.453C243.736 111.65 243.447 112.033 243.302 112.239C243.229 111.071 243.258 109.899 243.388 108.736C244.025 109.286 243.995 110.308 244.604 110.907C244.867 111.224 245.199 111.477 245.576 111.645C245.952 111.812 246.362 111.891 246.774 111.874C247.185 111.857 247.588 111.746 247.949 111.548C248.311 111.35 248.622 111.072 248.858 110.734C249.082 110.23 249.102 109.658 248.913 109.139C248.724 108.621 248.341 108.196 247.845 107.954C246.581 107.475 245.384 106.833 244.286 106.044C243.997 105.747 243.777 105.389 243.642 104.997C243.507 104.605 243.46 104.187 243.504 103.775C243.549 103.362 243.684 102.965 243.899 102.61C244.115 102.256 244.406 101.953 244.751 101.724Z" fill="white"/>
<path d="M186.494 101.463C187.623 101.406 188.75 101.463 189.879 101.406C191.058 104.156 192.224 106.907 193.415 109.628C194.571 106.877 195.701 104.156 196.86 101.406C198.539 101.522 200.216 101.349 201.895 101.435C203.718 101.522 205.686 101.03 207.335 102.015C207.696 102.237 207.998 102.543 208.217 102.906C208.436 103.269 208.564 103.679 208.593 104.102C208.621 104.524 208.548 104.948 208.379 105.337C208.211 105.726 207.952 106.069 207.624 106.337C206.308 107.083 204.78 107.368 203.284 107.149C203.187 108.571 203.265 110 203.515 111.404C204.036 111.752 204.694 111.752 205.222 112.07C201.866 112.243 198.48 112.07 195.121 112.157L195.092 111.809C195.671 111.636 196.712 111.722 196.683 110.882C196.742 108.306 196.683 105.699 196.683 103.093C195.381 106.162 194.224 109.288 192.717 112.271C191.358 109.172 190.054 106.046 188.725 102.948V109.549C188.672 110.144 188.803 110.739 189.1 111.257C189.563 111.546 190.054 111.748 190.518 112.043C189.187 112.149 187.848 112.11 186.525 111.927C187.134 111.609 188.145 111.55 188.175 110.654C188.261 108.048 188.232 105.443 188.175 102.836C188.32 101.911 187.134 101.854 186.496 101.474M199.142 101.938C198.505 102.17 198.562 102.952 198.535 103.473V110.449C198.564 110.854 198.476 111.491 199.055 111.579C199.807 111.724 200.85 111.984 201.428 111.347C201.623 110.083 201.689 108.803 201.624 107.526C201.677 105.826 201.629 104.125 201.479 102.431C201.161 101.533 199.858 101.824 199.134 101.94M203.329 101.97C203.299 103.561 203.329 105.125 203.329 106.718C204.342 106.718 205.644 106.864 206.31 105.907C206.599 105.413 206.747 104.85 206.737 104.278C206.726 103.706 206.558 103.148 206.251 102.665C205.544 101.751 204.321 101.897 203.337 101.954L203.329 101.97Z" fill="white"/>
</svg>
